<?xml version="1.0" encoding="UTF-8" standalone="no"?>
<!-- Created with Inkscape (http://www.inkscape.org/) -->

<svg
   width="167.94749mm"
   height="40.764618mm"
   viewBox="0 0 167.94749 40.764618"
   version="1.1"
   id="svg1002"
   inkscape:version="1.2.1 (9c6d41e410, 2022-07-14)"
   sodipodi:docname="identidat.svg"
   inkscape:export-filename="identidat.pdf"
   inkscape:export-xdpi="100"
   inkscape:export-ydpi="100"
   xml:space="preserve"
   xmlns:inkscape="http://www.inkscape.org/namespaces/inkscape"
   xmlns:sodipodi="http://sodipodi.sourceforge.net/DTD/sodipodi-0.dtd"
   xmlns:xlink="http://www.w3.org/1999/xlink"
   xmlns="http://www.w3.org/2000/svg"
   xmlns:svg="http://www.w3.org/2000/svg"
   xmlns:rdf="http://www.w3.org/1999/02/22-rdf-syntax-ns#"
   xmlns:cc="http://creativecommons.org/ns#"
   xmlns:dc="http://purl.org/dc/elements/1.1/"><defs
     id="defs996"><linearGradient
       id="linearGradient841"
       inkscape:collect="always"><stop
         id="stop837"
         offset="0"
         style="stop-color:#4a4d67;stop-opacity:1" /><stop
         id="stop839"
         offset="1"
         style="stop-color:#777da5;stop-opacity:1" /></linearGradient><linearGradient
       inkscape:collect="always"
       xlink:href="#linearGradient841"
       id="linearGradient868-7-9-4"
       x1="91.10424"
       y1="190.39427"
       x2="239.39948"
       y2="165.82713"
       gradientUnits="userSpaceOnUse"
       gradientTransform="translate(-227.71933,-76.483026)" /><linearGradient
       inkscape:collect="always"
       id="linearGradient4574"><stop
         style="stop-color:#f55555;stop-opacity:1"
         offset="0"
         id="stop4570" /><stop
         style="stop-color:#fccf31;stop-opacity:1"
         offset="1"
         id="stop4572" /></linearGradient><linearGradient
       inkscape:collect="always"
       xlink:href="#linearGradient4574"
       id="linearGradient935"
       x1="91.10424"
       y1="190.39427"
       x2="189.31763"
       y2="164.69321"
       gradientUnits="userSpaceOnUse"
       gradientTransform="translate(-3.2466431,67.280883)" /><linearGradient
       gradientUnits="userSpaceOnUse"
       y2="71.142456"
       x2="75.103981"
       y1="71.142456"
       x1="69.928574"
       id="linearGradient4606"
       xlink:href="#linearGradient4574"
       inkscape:collect="always" /><linearGradient
       gradientTransform="translate(-612.60648,-312.19614)"
       gradientUnits="userSpaceOnUse"
       y2="78.882362"
       x2="85.300735"
       y1="78.882362"
       x1="15.729036"
       id="linearGradient4582"
       xlink:href="#linearGradient4574"
       inkscape:collect="always" /><linearGradient
       gradientTransform="translate(-612.60648,-312.19614)"
       gradientUnits="userSpaceOnUse"
       y2="60"
       x2="85.300735"
       y1="97.764725"
       x1="15.729036"
       id="linearGradient4614"
       xlink:href="#linearGradient4574"
       inkscape:collect="always" /><linearGradient
       inkscape:collect="always"
       xlink:href="#linearGradient4574"
       id="linearGradient422"
       gradientUnits="userSpaceOnUse"
       x1="69.928574"
       y1="71.142456"
       x2="75.103981"
       y2="71.142456" /><linearGradient
       inkscape:collect="always"
       xlink:href="#linearGradient4574"
       id="linearGradient424"
       gradientUnits="userSpaceOnUse"
       x1="69.928574"
       y1="71.142456"
       x2="75.103981"
       y2="71.142456" /><linearGradient
       inkscape:collect="always"
       xlink:href="#linearGradient4574"
       id="linearGradient426"
       gradientUnits="userSpaceOnUse"
       x1="69.928574"
       y1="71.142456"
       x2="75.103981"
       y2="71.142456" /></defs><sodipodi:namedview
     id="base"
     pagecolor="#ffffff"
     bordercolor="#666666"
     borderopacity="1.0"
     inkscape:pageopacity="0.0"
     inkscape:pageshadow="2"
     inkscape:zoom="1.4"
     inkscape:cx="270"
     inkscape:cy="105"
     inkscape:document-units="mm"
     inkscape:current-layer="layer1"
     showgrid="false"
     fit-margin-top="0"
     fit-margin-left="0"
     fit-margin-right="0"
     fit-margin-bottom="0"
     inkscape:window-width="1920"
     inkscape:window-height="1017"
     inkscape:window-x="1912"
     inkscape:window-y="-8"
     inkscape:window-maximized="1"
     inkscape:pagecheckerboard="0"
     inkscape:showpageshadow="2"
     inkscape:deskcolor="#d1d1d1" /><metadata
     id="metadata999"><rdf:RDF><cc:Work
         rdf:about=""><dc:format>image/svg+xml</dc:format><dc:type
           rdf:resource="http://purl.org/dc/dcmitype/StillImage" /></cc:Work></rdf:RDF></metadata><g
     inkscape:label="Layer 1"
     inkscape:groupmode="layer"
     id="layer1"
     transform="translate(136.90928,-77.802162)"><g
       aria-label="Identi"
       id="text860-1-3-4"
       style="font-size:10.5833px;line-height:1.25;letter-spacing:0px;word-spacing:0px;fill:url(#linearGradient868-7-9-4);stroke-width:0.264583"><path
         d="m -135.9215,85.408084 h 3.03389 q 0.38806,0 0.74084,0.03528 0.35278,0 0.52916,0.246945 0.17639,0.246944 0.17639,0.635 0.0353,0.388056 0.0353,0.846667 v 3.069169 12.241397 5.78556 q 0,0.45861 0,1.02306 0.0353,0.56444 -0.14111,0.84666 -0.14111,0.24695 -0.635,0.38806 -0.24694,0.0705 -0.52917,0.0353 -0.28222,-0.0353 -0.56444,-0.0353 h -2.08139 q -0.38806,0 -0.74084,-0.0353 -0.3175,-0.0353 -0.52916,-0.21167 -0.17639,-0.17638 -0.21167,-0.52916 -0.0353,-0.35278 -0.0353,-0.74084 v -3.06917 -12.876393 -5.150559 q 0,-0.493889 -0.0353,-1.164167 0,-0.670279 0.17639,-0.952501 0.14111,-0.211667 0.45861,-0.352778 0.10584,0 0.17639,0 0.10584,-0.03528 0.17639,-0.03528 z"
         style="font-weight:bold;font-size:35.2778px;font-family:'Alte Haas Grotesk';-inkscape-font-specification:'Alte Haas Grotesk Bold'"
         id="path296" /><path
         d="m -109.18092,108.51504 q 0,0.49389 0,0.98778 0,0.45861 -0.21167,0.74084 -0.17639,0.17639 -0.45861,0.24694 -0.28222,0.0353 -0.635,0.0353 h -1.94028 q -0.35278,0 -0.67028,0 -0.28222,-0.0353 -0.45861,-0.17639 -0.24694,-0.17639 -0.28222,-0.45861 -0.0353,-0.28222 -0.14111,-0.56445 -0.0706,-0.0705 -0.14111,-0.10583 -0.0353,-0.0706 -0.10584,-0.14111 -0.38805,0 -0.56444,0.17639 -0.17639,0.17639 -0.35278,0.35278 -0.24694,0.17639 -0.45861,0.3175 -0.21167,0.10583 -0.45861,0.28222 -0.14111,0.0705 -0.3175,0.14111 -0.14111,0.0706 -0.3175,0.14111 -0.49389,0.17639 -1.05834,0.3175 -0.17639,0.0706 -0.3175,0.0706 -0.14111,0 -0.28222,0.0353 -0.17639,0 -0.3175,0 -0.10583,0.0353 -0.28222,0.0353 h -0.3175 q -0.21167,0.0706 -0.635,0.0353 -0.42334,0 -0.59973,-0.0706 -0.24694,-0.0705 -0.45861,-0.0705 -0.17639,0.0353 -0.38805,-0.0353 -0.42334,-0.14111 -0.84667,-0.28222 -0.38806,-0.10583 -0.77611,-0.28222 -1.23472,-0.52917 -2.2225,-1.62278 -0.9525,-1.12889 -1.51695,-2.36362 -0.17639,-0.38805 -0.28222,-0.74083 -0.10583,-0.38805 -0.24695,-0.77611 -0.0353,-0.14111 -0.0353,-0.24695 0,-0.14111 -0.0706,-0.3175 -0.0705,-0.28222 -0.14111,-0.59972 -0.0353,-0.35278 -0.10583,-0.70555 -0.0353,-0.10584 -0.0353,-0.24695 0.0353,-0.14111 0,-0.24694 0,-0.17639 0,-0.3175 0,-0.17639 -0.0353,-0.35278 -0.0353,-0.17639 -0.0353,-0.38806 0,-0.24694 0.0353,-0.38805 0.0353,-0.17639 0.0353,-0.3175 0,-0.17639 0,-0.35278 0.0353,-0.17639 0,-0.317502 0,-0.176389 0.0705,-0.352778 0.0706,-0.388055 0.10584,-0.740833 0.0705,-0.352778 0.17639,-0.705556 0.14111,-0.423334 0.24694,-0.81139 0.10583,-0.388056 0.28222,-0.776111 0.49389,-1.058335 1.23473,-2.010835 0.0705,-0.105834 0.17639,-0.176389 0.14111,-0.105834 0.21166,-0.211667 0.14111,-0.176389 0.28223,-0.3175 0.14111,-0.141111 0.3175,-0.282223 0.14111,-0.07055 0.24694,-0.176389 0.10583,-0.141111 0.24694,-0.211666 0.88195,-0.599723 2.04612,-0.987779 0.24694,-0.07055 0.49389,-0.105833 0.28222,-0.03528 0.56444,-0.105834 0.24695,-0.07056 0.635,-0.07056 0.38806,-0.03528 0.77611,-0.03528 0.38806,0 0.74084,0.03528 0.38805,0.03528 0.635,0.105833 0.52916,0.176389 1.02305,0.3175 0.49389,0.141112 0.91723,0.388056 0.24694,0.176389 0.45861,0.352778 0.21166,0.141111 0.45861,0.3175 0.14111,0.105834 0.38806,0.282223 0.28222,0.176389 0.52916,0 0.14111,-0.07056 0.14111,-0.246945 0,-0.176389 0.0706,-0.352778 v -0.352778 q 0.0353,-0.105833 0.0353,-0.246944 0,-0.141112 0,-0.282223 v -4.797781 q 0,-0.388056 -0.0353,-0.846667 0,-0.493889 0.17639,-0.740834 0.14111,-0.282222 0.52916,-0.352778 0.0706,-0.03528 0.14112,0 0.0705,0 0.14111,-0.03528 h 2.50472 q 0.42333,0 0.77611,0.03528 0.35278,0.03528 0.52917,0.282222 0.17639,0.282223 0.17639,0.740834 0,0.423334 0,0.846668 z m -4.79778,-6.91444 q 0.0353,-0.14112 0,-0.28223 0,-0.17639 0,-0.3175 0,-0.35278 -0.0353,-0.70555 -0.0353,-0.352782 -0.10583,-0.635004 -0.0706,-0.388056 -0.14111,-0.705556 -0.0353,-0.3175 -0.17639,-0.599723 -0.49389,-1.27 -1.44639,-2.010834 -0.91723,-0.740834 -2.68112,-0.740834 -0.21166,0 -0.56444,0.07055 -0.28222,0.07056 -0.52917,0.141112 -0.21166,0.03528 -0.42333,0.141111 -0.9525,0.388056 -1.48167,1.199445 -0.52917,0.81139 -0.84667,1.834446 -0.10583,0.352778 -0.14111,0.705556 -0.0353,0.352776 -0.14111,0.740836 v 0.49389 q -0.0706,0.3175 -0.0353,0.88194 0.0353,0.52917 0.10584,0.77611 0,0.10584 0,0.21167 0.0353,0.0706 0.0353,0.14111 0.0706,0.28222 0.10584,0.52917 0.0705,0.24694 0.14111,0.52917 0.59972,1.83444 2.04611,2.71639 0.45861,0.3175 1.27,0.49389 0.14111,0.0353 0.42334,0.0353 0.10583,0.0353 0.3175,0.0706 0.24694,0 0.38805,-0.0353 0.28222,-0.0705 0.56445,-0.10583 0.28222,-0.0353 0.56444,-0.14111 0.88195,-0.38806 1.41111,-0.98778 0.52917,-0.59972 0.91723,-1.51695 0.14111,-0.3175 0.21166,-0.635 0.0706,-0.35278 0.14111,-0.74083 0.0353,-0.17639 0,-0.3175 0,-0.17639 0.0706,-0.35278 0.0353,-0.10583 0.0353,-0.24694 0,-0.14112 0,-0.3175 z"
         style="font-weight:bold;font-size:35.2778px;font-family:'Alte Haas Grotesk';-inkscape-font-specification:'Alte Haas Grotesk Bold'"
         id="path298" /><path
         d="m -88.155349,101.24782 q 0.07055,0.28222 0,0.635 -0.07056,0.35278 -0.246945,0.45861 -0.176389,0.14111 -0.529167,0.21167 -0.3175,0.0353 -0.740834,0.0705 -0.388055,0 -0.811389,0 -0.388056,-0.0353 -0.705556,-0.0353 h -8.607784 q -0.246946,0 -0.493886,0 -0.21167,0 -0.38806,0.0706 -0.28222,0.14111 -0.35278,0.28222 -0.0705,0.0706 -0.14111,0.28222 -0.0705,0.17639 -0.0353,0.35278 0.0706,0.21167 0.0706,0.42334 0.0353,0.17638 0.10583,0.38805 0.28223,0.84667 0.67028,1.41111 0.423335,0.52917 1.128891,0.9525 0.282223,0.17639 0.564445,0.24695 0.3175,0.0353 0.635,0.14111 0.282223,0.0706 0.776112,0.10583 0.493889,0.0353 0.846667,-0.0353 h 0.317501 q 0.352778,-0.0706 0.635,-0.14112 0.3175,-0.10583 0.599723,-0.21166 0.352778,-0.17639 0.776111,-0.45861 0.458612,-0.28223 0.670278,-0.56445 0.176389,-0.24694 0.352778,-0.45861 0.211667,-0.24694 0.49389,-0.35278 0.352778,-0.17639 0.881945,-0.14111 0.564445,0 1.023056,0 0.211667,0 0.423334,0 0.246944,-0.0353 0.423333,0.0353 h 0.352778 q 0.352778,0.0706 0.493889,0.17639 0.141112,0.0705 0.141112,0.3175 0.03528,0.24694 -0.03528,0.42333 -0.176389,0.49389 -0.388056,0.88195 -0.211667,0.38805 -0.493889,0.77611 -0.776112,1.16417 -1.76389,1.86972 -0.987779,0.70556 -2.469446,1.19945 -0.388056,0.14111 -0.776112,0.17639 -0.388056,0.0353 -0.811389,0.14111 -0.141112,0.0353 -0.317501,0 -0.141111,0 -0.282222,0.0353 h -0.388056 q -0.176389,0.0706 -0.423334,0.0353 -0.211666,0 -0.388055,-0.0353 -0.282223,-0.0353 -0.49389,0 -0.211666,0.0353 -0.458611,-0.0353 -0.176389,-0.0706 -0.388056,-0.0706 -0.211667,0 -0.388056,-0.0705 -0.388055,-0.0706 -0.776111,-0.17639 -0.388061,-0.0706 -0.705561,-0.24695 -0.38805,-0.14111 -0.74083,-0.24694 -0.3175,-0.14111 -0.59972,-0.3175 -1.12889,-0.70556 -2.01084,-1.62278 -0.88194,-0.9525 -1.44639,-2.18723 -0.17639,-0.38805 -0.28222,-0.77611 -0.10583,-0.42333 -0.28222,-0.84666 -0.0353,-0.14112 -0.0353,-0.24695 0,-0.14111 -0.0353,-0.28222 -0.14111,-0.42333 -0.17639,-0.91722 -0.0353,-0.49389 -0.0705,-0.98778 0,-0.17639 -0.0353,-0.38806 0,-0.21167 0.0353,-0.38805 v -0.42334 l 0.10583,-0.846665 q 0.14111,-0.599723 0.24695,-1.164167 0.10583,-0.564445 0.3175,-1.058334 1.51694,-3.668892 5.15056,-5.185837 0.493885,-0.211667 0.987774,-0.282223 0.529167,-0.105833 1.093612,-0.246944 0.282223,-0.03528 0.529167,-0.03528 0.246945,0 0.529167,-0.03528 1.799168,-0.03528 3.069169,0.423334 1.305279,0.423333 2.328335,1.128889 0.3175,0.211667 0.635,0.49389 0.317501,0.246944 0.564445,0.529167 0.105834,0.176389 0.282223,0.282222 0.282222,0.388056 0.529167,0.811389 0.246944,0.388056 0.529167,0.81139 0.176389,0.3175 0.282222,0.670278 0.141111,0.3175 0.282222,0.705556 0.176389,0.458612 0.282223,0.952501 0.105833,0.493889 0.246944,0.987778 0.07056,0.282223 0.03528,0.635002 0,0.3175 0.07056,0.59972 z m -5.29167,-2.081393 q 0.246944,-0.352778 0.03528,-0.846667 -0.176389,-0.529167 -0.282222,-0.776112 -0.493889,-0.952501 -1.305279,-1.44639 -0.811389,-0.529167 -2.257779,-0.564445 -0.105833,0.07056 -0.246945,0.03528 -0.141111,-0.03528 -0.246944,0 -0.176389,0.07056 -0.388056,0.105833 -0.211667,0 -0.388056,0.07056 -1.552227,0.493889 -2.293057,1.940279 -0.0706,0.141111 -0.17639,0.388056 -0.0705,0.211667 -0.10583,0.458611 -0.0353,0.211667 0,0.423334 0.0705,0.211667 0.24694,0.352778 0.28222,0.176389 0.77611,0.176389 0.493893,0 0.952505,0 h 3.915836 q 0.493889,0 1.023056,0 0.564445,-0.03528 0.740834,-0.3175 z"
         style="font-weight:bold;font-size:35.2778px;font-family:'Alte Haas Grotesk';-inkscape-font-specification:'Alte Haas Grotesk Bold'"
         id="path300" /><path
         d="m -74.820363,91.863922 q 2.116668,-0.07056 3.52778,0.599723 1.411112,0.670278 2.222502,1.975556 0.246944,0.388056 0.388056,0.846668 0.141111,0.423333 0.282222,0.881945 0.07056,0.282222 0.07056,0.529167 0.03528,0.246944 0.105833,0.493889 0,0.211667 0.03528,0.282222 0.07055,0.49389 0.07055,1.023057 0,0.529167 0,1.023056 v 3.139725 5.715 q 0,0.67028 -0.03528,1.30528 0,0.59972 -0.49389,0.77611 -0.211666,0.0706 -0.493889,0.0706 -0.282222,0 -0.564445,0 h -1.905001 q -0.423334,0 -0.776112,-0.0353 -0.3175,-0.0705 -0.493889,-0.3175 -0.141111,-0.21167 -0.176389,-0.52917 0,-0.35277 0,-0.74083 v -2.46945 -5.25639 q 0,-1.305277 -0.105833,-2.398889 -0.105834,-1.12889 -0.635001,-1.905001 -0.493889,-0.705556 -1.446389,-0.987779 -0.176389,-0.07055 -0.388056,-0.07055 -0.176389,0 -0.388056,-0.07056 -0.176389,-0.03528 -0.458611,0 -0.246945,0 -0.388056,0.03528 -0.141112,0.03528 -0.246945,0.03528 -0.105833,0 -0.211667,0.03528 -0.811389,0.211667 -1.305278,0.564445 -1.12889,0.81139 -1.340557,2.363613 -0.211667,1.552219 -0.211667,3.492499 v 4.40973 2.15194 q 0,0.3175 0,0.635 0,0.31751 -0.105833,0.52917 -0.176389,0.38806 -0.564445,0.45861 -0.388056,0.0706 -0.952501,0.0706 h -1.76389 q -0.388055,0 -0.776111,-0.0353 -0.388056,-0.0353 -0.564445,-0.24694 -0.246945,-0.3175 -0.246945,-0.91723 0.03528,-0.59972 0.03528,-1.12889 v -4.79778 -7.761113 -1.799168 q 0,-0.388056 0,-0.705556 0.03528,-0.3175 0.211667,-0.529167 0.07056,-0.105834 0.211667,-0.141111 0.176389,-0.07056 0.352778,-0.105834 h 0.176389 q 0.176389,-0.03528 0.352778,-0.03528 0.211667,0 0.388056,0 h 1.481667 q 0.282223,0 0.529167,0.03528 0.282223,0 0.49389,0.07056 0.246944,0.105833 0.3175,0.3175 0.105833,0.211667 0.176389,0.493889 0.03528,0.141111 0,0.246945 0,0.105833 0.07056,0.211667 0.07056,0.176389 0.105834,0.211666 0.07056,0.03528 0.176389,0.105834 0.388056,0.03528 0.635,-0.246945 0.246945,-0.3175 0.529167,-0.493889 0.952501,-0.705556 2.116668,-1.12889 0.317501,-0.105833 0.635001,-0.141111 0.352778,-0.03528 0.740834,-0.105833 0.105833,-0.03528 0.3175,0 0.211667,0 0.282222,-0.03528 z"
         style="font-weight:bold;font-size:35.2778px;font-family:'Alte Haas Grotesk';-inkscape-font-specification:'Alte Haas Grotesk Bold'"
         id="path302" /><path
         d="m -61.838114,86.889752 h 2.363613 q 0.529167,0 0.917222,0.07055 0.423334,0.03528 0.599723,0.423334 0.07056,0.176389 0.07056,0.423334 0,0.246944 0,0.493889 v 1.587501 q 0,0.176389 -0.03528,0.423334 0,0.211666 0.03528,0.388055 v 0.388056 q 0,0.282223 0.03528,0.529167 0.03528,0.211667 0.176389,0.388056 0.246945,0.3175 0.881945,0.352778 0.670279,0 1.270001,0 0.211667,0 0.423334,0 0.211667,0 0.388056,0.07056 0.388056,0.176389 0.423333,0.635 0.07056,0.458612 0.07056,1.023056 0,0.246945 0,0.49389 0.03528,0.246944 -0.03528,0.423333 -0.176389,0.564445 -0.740834,0.599723 -0.564444,0.03528 -1.27,0.03528 -0.141112,0 -0.317501,0 -0.141111,-0.03528 -0.246944,0 -0.141112,0.03528 -0.246945,0.03528 -0.105833,-0.03528 -0.211667,0.03528 -0.282222,0.07056 -0.423333,0.3175 -0.105834,0.211667 -0.176389,0.529168 -0.03528,0.176389 0,0.388055 0.03528,0.211667 0,0.388056 v 2.187224 4.127505 q 0,0.88194 0.03528,1.55222 0.07056,0.635 0.458612,1.12889 0.176389,0.21167 0.458611,0.3175 0.3175,0.0706 0.635001,0.14111 0.105833,0.0353 0.211667,0.0353 0.141111,-0.0353 0.211666,0 h 0.388056 q 0.388056,0 0.670278,0.0353 0.282223,0.0353 0.458612,0.28222 0.141111,0.21167 0.141111,0.56444 0,0.3175 0,0.67028 0,0.74084 -0.03528,1.37584 0,0.59972 -0.564445,0.81139 -0.176389,0.0705 -0.3175,0.0353 -0.141111,0 -0.3175,0.0706 h -0.352778 q -0.07056,0 -0.211667,-0.0353 -0.141111,0 -0.246944,0.0353 -0.17639,0.0353 -0.388056,0 -0.176389,0 -0.352778,0 -0.176389,0 -0.352778,0 -0.176389,0.0353 -0.317501,0 h -0.388055 q -0.176389,-0.0353 -0.388056,-0.0353 -0.211667,0 -0.388056,-0.0353 -0.246945,-0.0353 -0.458611,-0.0705 -0.211667,-0.0353 -0.423334,-0.0706 -0.388056,-0.10583 -0.740834,-0.24694 -0.352778,-0.14111 -0.670278,-0.3175 -0.105834,-0.0706 -0.211667,-0.14111 -0.105833,-0.10584 -0.246945,-0.21167 -0.07055,-0.0706 -0.176389,-0.14111 -0.105833,-0.10583 -0.176389,-0.17639 -0.493889,-0.67028 -0.740833,-1.48167 -0.07056,-0.14111 -0.07056,-0.24694 0.03528,-0.14111 0,-0.3175 -0.03528,-0.0706 -0.03528,-0.17639 0,-0.10583 -0.03528,-0.17639 v -0.35278 q -0.03528,-0.14111 -0.03528,-0.3175 0.03528,-0.17639 0.03528,-0.35278 v -1.34055 -5.256395 -1.869724 q 0,-0.246944 0,-0.493889 0.03528,-0.246945 -0.03528,-0.458612 -0.141112,-0.493889 -0.49389,-0.635 -0.388055,-0.176389 -0.987778,-0.105833 -0.599723,0.07055 -1.023056,-0.105834 -0.282223,-0.105833 -0.352778,-0.3175 -0.07056,-0.211667 -0.141112,-0.529167 v -0.740834 q 0,-0.635 0.07056,-1.023056 0.07056,-0.388056 0.599723,-0.529167 0.141111,-0.07056 0.282222,-0.03528 0.141111,0 0.3175,0 0.529167,0 0.987779,-0.03528 0.458611,-0.07056 0.635,-0.423333 0.105834,-0.246945 0.105834,-0.564445 0.03528,-0.3175 0.03528,-0.635001 v -2.187223 q 0,-0.282223 0,-0.599723 0,-0.3175 0.07056,-0.529167 0.176389,-0.352778 0.529167,-0.458611 0.07056,-0.03528 0.176389,0 0.141111,0 0.211667,-0.03528 z"
         style="font-weight:bold;font-size:35.2778px;font-family:'Alte Haas Grotesk';-inkscape-font-specification:'Alte Haas Grotesk Bold'"
         id="path304" /><path
         d="m -46.950905,85.619751 q 0.246944,0.282222 0.246944,0.846667 0,0.564445 0,1.093612 0,0.458612 0,0.952501 0,0.493889 -0.246944,0.670278 -0.211667,0.176389 -0.564445,0.211667 -0.3175,0.03528 -0.705556,0.03528 h -1.975557 q -0.388056,0 -0.705556,-0.03528 -0.282222,-0.03528 -0.493889,-0.211667 -0.141111,-0.105833 -0.211667,-0.388056 -0.03528,-0.3175 -0.07056,-0.670278 0,-0.388056 0,-0.776112 0.03528,-0.388056 0.03528,-0.670278 0,-0.282222 0,-0.493889 0.03528,-0.246945 0.141111,-0.423334 0.07056,-0.141111 0.176389,-0.211667 0.141112,-0.07055 0.282223,-0.141111 0.07055,0 0.176389,0 0.105833,-0.03528 0.176389,-0.03528 h 2.575279 q 0.352778,0 0.670279,0.03528 0.3175,0.03528 0.493889,0.211667 z m 0.246944,22.965849 q 0,0.70556 -0.03528,1.19945 -0.03528,0.49388 -0.635001,0.67027 -0.211667,0.0706 -0.458611,0.0706 -0.246945,-0.0353 -0.529167,-0.0353 h -1.975557 q -0.3175,0 -0.635001,-0.0353 -0.282222,-0.0353 -0.423333,-0.21166 -0.211667,-0.24695 -0.246945,-0.59973 0,-0.38805 0,-0.81139 V 93.945312 q 0,-0.352778 0,-0.705556 0,-0.352778 0.141111,-0.564445 0.211667,-0.246944 0.599723,-0.3175 0.07056,-0.03528 0.176389,0 0.141111,0 0.211667,-0.03528 h 1.76389 q 0.211667,0 0.458611,0 0.282223,-0.03528 0.458612,0 h 0.282222 q 0.211667,0.07056 0.388056,0.105834 0.176389,0.03528 0.282222,0.211667 0.141112,0.176389 0.141112,0.493889 0.03528,0.3175 0.03528,0.670278 z"
         style="font-weight:bold;font-size:35.2778px;font-family:'Alte Haas Grotesk';-inkscape-font-specification:'Alte Haas Grotesk Bold'"
         id="path306" /></g><g
       id="layer3"
       inkscape:label="Layer 3"
       transform="translate(558.34404,332.9983)"><flowRoot
         xml:space="preserve"
         id="flowRoot4600"
         style="font-style:normal;font-weight:normal;font-size:40px;line-height:1.25;font-family:sans-serif;letter-spacing:0px;word-spacing:0px;fill:#000000;fill-opacity:1;stroke:none"><flowRegion
           id="flowRegion4602"><rect
             id="rect4604"
             width="590.41565"
             height="113.9595"
             x="316.7272"
             y="421.41733" /></flowRegion><flowPara
           id="flowPara4606" /></flowRoot><flowRoot
         xml:space="preserve"
         id="flowRoot4608"
         style="font-style:normal;font-weight:normal;font-size:40px;line-height:1.25;font-family:sans-serif;letter-spacing:0px;word-spacing:0px;fill:#000000;fill-opacity:1;stroke:none"><flowRegion
           id="flowRegion4610"><rect
             id="rect4612"
             width="1058.5714"
             height="314.28571"
             x="-185.71428"
             y="583.94824" /></flowRegion><flowPara
           id="flowPara4614" /></flowRoot><flowRoot
         xml:space="preserve"
         id="flowRoot4547"
         style="font-style:normal;font-weight:normal;font-size:40px;line-height:1.25;font-family:sans-serif;letter-spacing:0px;word-spacing:0px;fill:#000000;fill-opacity:1;stroke:none"><flowRegion
           id="flowRegion4549"><rect
             id="rect4551"
             width="211.42857"
             height="81.957253"
             x="872.85712"
             y="60.472454" /></flowRegion><flowPara
           id="flowPara4553" /></flowRoot><rect
         style="opacity:1;fill:url(#linearGradient4582);fill-opacity:1;fill-rule:nonzero;stroke:url(#linearGradient4614);stroke-width:3;stroke-linecap:square;stroke-linejoin:miter;stroke-miterlimit:4;stroke-dasharray:none;stroke-opacity:1;paint-order:markers fill stroke"
         id="rect949-5-2-6"
         width="66.571701"
         height="34.764725"
         x="-595.37744"
         y="-250.69614" /><rect
         style="opacity:1;fill:#ffffff;fill-opacity:1;fill-rule:nonzero;stroke:#000000;stroke-width:3;stroke-linecap:square;stroke-linejoin:miter;stroke-miterlimit:4;stroke-dasharray:none;stroke-opacity:1;paint-order:markers fill stroke"
         id="rect949-59-1"
         width="66.571701"
         height="34.764725"
         x="-598.37732"
         y="-253.69614" /><g
         aria-label="dat"
         style="font-style:normal;font-variant:normal;font-weight:normal;font-stretch:normal;font-size:10.5833px;line-height:2;font-family:'Source Sans Pro';-inkscape-font-specification:'Source Sans Pro';letter-spacing:0px;word-spacing:0px;display:inline;fill:#000000;fill-opacity:1;stroke:none;stroke-width:0.264583"
         id="text825-5-2-2"><path
           d="m -580.18722,-238.12042 q -1.41249,-0.93018 -3.54845,-0.93018 -4.25469,0 -4.25469,4.77146 0,5.66718 4.42694,5.66718 1.79145,0 3.3762,-0.49953 z m 4.56475,12.28177 q -4.15134,1.0852 -8.1132,1.0852 -8.76777,0 -8.76777,-9.40511 0,-8.68164 8.57829,-8.68164 1.8259,0 3.73793,0.86127 v -7.40695 h 4.56475 z"
           style="font-style:normal;font-variant:normal;font-weight:bold;font-stretch:normal;font-size:35.2778px;font-family:Sansation;-inkscape-font-specification:'Sansation Bold';fill:#000000;fill-opacity:1;stroke-width:0.264583"
           id="path1766" /><path
           d="m -572.17738,-230.38618 q 0,-5.39157 7.85482,-5.39157 1.84313,0 3.68626,0.34451 v -1.36082 q 0,-2.42879 -3.49678,-2.42879 -2.96278,0 -6.58013,0.86127 v -3.61735 q 3.61735,-0.86127 6.58013,-0.86127 8.06153,0 8.06153,5.96002 v 12.12673 h -2.65273 l -1.61919,-1.61919 q -2.35989,1.61919 -5.2021,1.61919 -6.63181,0 -6.63181,-5.63273 z m 11.54108,-1.94648 q -1.72255,-0.34451 -3.68626,-0.34451 -3.29006,0 -3.29006,2.23931 0,2.41157 2.75607,2.41157 2.27377,0 4.22025,-1.41249 z"
           style="font-style:normal;font-variant:normal;font-weight:bold;font-stretch:normal;font-size:35.2778px;font-family:Sansation;-inkscape-font-specification:'Sansation Bold';fill:#000000;fill-opacity:1;stroke-width:0.264583"
           id="path1768" /><path
           d="m -552.00634,-245.76853 h 3.37619 l 0.68902,2.92833 h 4.54753 v 3.61735 h -4.04799 v 8.31991 q 0,2.53214 2.18763,2.53214 h 1.86036 v 3.61735 h -4.06522 q -4.54752,0 -4.54752,-4.87481 z"
           style="font-style:normal;font-variant:normal;font-weight:bold;font-stretch:normal;font-size:35.2778px;font-family:Sansation;-inkscape-font-specification:'Sansation Bold';fill:#000000;fill-opacity:1;stroke-width:0.264583"
           id="path1770" /></g><g
         transform="translate(-612.60648,-312.19614)"
         id="g4590"
         style="fill:url(#linearGradient4606);fill-opacity:1"><rect
           style="display:inline;opacity:1;fill:url(#linearGradient422);fill-opacity:1;fill-rule:nonzero;stroke:none;stroke-width:1.587;stroke-linecap:round;stroke-linejoin:miter;stroke-miterlimit:4;stroke-dasharray:none;stroke-opacity:1;paint-order:normal"
           id="rect827-4-8-3"
           width="2.187"
           height="3.5907712"
           x="69.928574"
           y="69.347069" /><rect
           style="display:inline;opacity:1;fill:url(#linearGradient424);fill-opacity:1;fill-rule:nonzero;stroke:none;stroke-width:1.23208;stroke-linecap:round;stroke-linejoin:miter;stroke-miterlimit:4;stroke-dasharray:none;stroke-opacity:1;paint-order:normal"
           id="rect827-9-8-9-1"
           width="1.3181821"
           height="3.5907712"
           x="72.760559"
           y="69.347069"
           inkscape:transform-center-x="-0.90625022"
           inkscape:transform-center-y="6.8980655" /><rect
           style="display:inline;opacity:1;fill:url(#linearGradient426);fill-opacity:1;fill-rule:nonzero;stroke:none;stroke-width:0.699779;stroke-linecap:round;stroke-linejoin:miter;stroke-miterlimit:4;stroke-dasharray:none;stroke-opacity:1;paint-order:normal"
           id="rect827-9-7-4-73-9"
           width="0.42522317"
           height="3.5907712"
           x="74.678757"
           y="69.347069"
           inkscape:transform-center-x="-0.29234093"
           inkscape:transform-center-y="6.8980655" /></g></g></g></svg>
